<?xml version="1.0" encoding="UTF-8"?>
<svg id="Layer_1" data-name="Layer 1" xmlns="http://www.w3.org/2000/svg" viewBox="0 0 128 128">
  <defs>
    <style>
      .cls-1 {
        fill: #991b1e;
        stroke-width: 0px;
      }
    </style>
  </defs>
  <path class="cls-1" d="M21.34,22.25c-2.05,1.24-2.55,2.65-6.84,8.47-1.13,1.54.42,3.3,2.59,3.27,2.62-.03,5.23.06,7.8-.8,9.89-3.31,19.21-7.66,27.41-14.21.39-.31.74-.66,1.1-.99,3.48-3.13,4.4-5.82,2.9-8.52-1.42-2.55-4.47-3.18-8.85-1.71-1.38.46-2.66,1.2-3.99,1.81l.04-.08c-3.22,1.23-6.43,2.46-9.65,3.68,0-1.24,1.15-1.66,1.93-1.99,7.2-3,14.04-6.88,21.92-8.25,3.39-.59,6.03-.09,7.7,2.7,1.65,2.77.19,5.48-1.62,7.68-3.5,4.24-8.13,7.12-12.73,9.99-4.68,2.91-4.3,2.72-2.48,7.75,1.51,4.18,3.8,5.22,7.98,4.93,4.53-.32,9.11-.39,13.7.72,2.88.7,5.34-.71,7.54-3.34,2.75-3.28,4.45-7.68,9.14-9.29,4.41-1.51,8.29-1.29,12.05,1.57,2.32,1.77,4.41,2.9,7.99,2.09,4.12-.93,6.64,3.05,9.86,6.76-3.59-.07-7.07-4.05-8.36,1.18-.81,3.26.86,4.79,4.48,4.47-3.13,2.86-9.26,1.06-10.98-2.73-2.4-5.32-5.75-6.92-11.1-5.27-4.16,1.29-5.87,5.03-7.79,8.33-.89,1.52,0,3.37,1.54,4.78,5.85,5.31,8.92,12.23,9.73,19.86.48,4.52,2.74,5.12,6.38,5.49,6.92.71,15.43,8.28,14.04,16.03-.64,3.58-1.58,7.28-4.68,9.9-1.93,1.62-2.87,3.61-1.98,6.39.83,2.57.44,5.14-2.08,6.96-2.86-5.88-4.16-6.43-10.12-4.42-.74.25-1.53.85-2.22.07-.59-.67-.44-1.57-.16-2.34.78-2.19,1.68-4.39,4.15-5.16,3.62-1.13,5.46-4.08,7.3-6.98,2.07-3.26.22-7.87-3.5-8.87-2.68-.72-5.47-1.86-8.12-1.65-2.96.23-3,3.9-4.53,5.92-4.7,6.21-10.49,10.96-18.13,12.72-4.21.97-5.53,3.16-5.31,7.11.09,1.61-.19,3.29-.56,4.88-1.08,4.6-2.89,8.85-8.36,9.28-2.52.2-3.81,1.58-5.11,3.2-2.27,2.82-5.28,2.37-8.46,2.2,2.68-2.13,5.11-3.88,4.95-7.79-.14-3.44-1.82-5.7-4.47-7.83,4.55-2.13,7.17.74,10.23,3.05,1.3-3.77,1.06-7.34,1.26-10.87.12-2.05-1.44-2.56-2.76-2.91-11.91-3.21-19.5-10.9-23.5-22.37-.42-1.2-.53-2.95-2.23-2.73-1.59.21-2.91,1.44-3.92,2.68-.57.71-.94,1.87-.85,2.78.56,5.97-2.35,11.83-.44,17.84.45,1.42-.04,2.89-.77,4.26-.57,1.07-1.2,2.11-2.41,2.26-1.77.22-1.36-1.41-1.74-2.38-.78-1.96-2.12-2.28-3.94-1.31-.81.43-1.35,1.55-2.55,1.09-.62-.68-.9-1.64-.31-2.23,4.88-4.88,3.13-11.01,3.05-16.72-.06-3.77,1.47-6.47,3.02-9.77,2.78-5.91,7.7-8.91,12.05-12.86.81-.73,1.34-1.87,1.75-2.91,2.46-6.24,5.99-11.71,11.78-15.3,2.77-1.71,3.42-3.51,1.69-6.23-.53-.83-1.09-1.7-1.35-2.63-.85-3.02-2.38-3.23-5.04-1.88-5.87,2.96-11.88,5.54-18.74,5.12-2.42-.15-4.66-.38-5.89-2.74-1.19-2.27.1-4.25,1.35-5.9,3.4-4.5,15.89-13.07,21.32-15.64"/>
  <path class="cls-1" d="M41,11.75c1.94,2.07-.5,3.81-.76,5.84,3.3,1.11,6.29-1.83,9.49.05-1.19,2.59-4.05,2.4-5.75,2.32-4.59-.2-7.2,2.05-9.64,5.4-.86,1.18-1.5,2.95-3.58,3.31-1.17-3.23,2.56-4.37,2.72-6.91-2.47-1.54-4.91,1.29-7.59.07.65-2.36,2.83-2.33,4.25-2.42,5.35-.34,8.76-3.06,10.9-7.74l-.04.08Z"/>
</svg>